<svg xmlns="http://www.w3.org/2000/svg" width="64" height="64" viewBox="0 0 64 64"><title>64x64_Server</title><path d="M39.31,27.56v3.7a2.5,2.5,0,0,1-2.5,2.5H9.23V36l.48.81H41.34L42.71,36V27.56Z" fill="#fed500"/><path d="M51.3,45.51v3.75a2.5,2.5,0,0,1-2.5,2.5H21.22V54l1.07.81H53.67L54,54l.72-.4V46.39L54,45.51Z" fill="#fed500"/><path d="M51.23,8.79v4.47a2.5,2.5,0,0,1-2.5,2.5H21.15v2L22.75,19H53.29l1.34-1V10.6l-.71-1.81Z" fill="#fed500"/><path d="M40,28a2,2,0,0,1,2,2v4a2,2,0,0,1-2,2H12a2,2,0,0,1-2-2V30a2,2,0,0,1,2-2H40m0-2H12a4,4,0,0,0-4,4v4a4,4,0,0,0,4,4H40a4,4,0,0,0,4-4V30a4,4,0,0,0-4-4Z" fill="#91721f"/><path d="M52,46a2,2,0,0,1,2,2v4a2,2,0,0,1-2,2H24a2,2,0,0,1-2-2V48a2,2,0,0,1,2-2H52m0-2H24a4,4,0,0,0-4,4v4a4,4,0,0,0,4,4H52a4,4,0,0,0,4-4V48a4,4,0,0,0-4-4Z" fill="#91721f"/><path d="M51.92,10a2,2,0,0,1,2,2v4a2,2,0,0,1-2,2h-28a2,2,0,0,1-2-2V12a2,2,0,0,1,2-2h28m0-2h-28a4,4,0,0,0-4,4v4a4,4,0,0,0,4,4h28a4,4,0,0,0,4-4V12a4,4,0,0,0-4-4Z" fill="#91721f"/></svg>
